PathFileType	4	(X/Y/Z)	./resultDataOpenSim/trcMotMarkerGrf/sub06/qtm-04-04.trc
DataRate	CameraRate	NumFrames	NumMarkers	Units	OrigDataRate	OrigDataStartFrame	OrigNumFrames
250.000000	250.000000	12	24	m	250.000000	202	536
Frame#	Time	L.Toe.Tip			R.Toe.Tip			L.Ankle.Lat			R.Ankle.Lat			L.Ankle.Med			R.Ankle.Med			L.Heel			R.Heel			L.Knee.Lat			R.Knee.Lat			L.Knee.Med			R.Knee.Med			L.Thigh.Upper			R.Thigh.Upper			L.ASIS			R.ASIS			V.Sacral			L.Acromium			R.Acromium			C7			L.Elbow			R.Elbow			L.Wrist.Lat			R.Wrist.Lat
		X1	Y1	Z1	X2	Y2	Z2	X3	Y3	Z3	X4	Y4	Z4	X5	Y5	Z5	X6	Y6	Z6	X7	Y7	Z7	X8	Y8	Z8	X9	Y9	Z9	X10	Y10	Z10	X11	Y11	Z11	X12	Y12	Z12	X13	Y13	Z13	X14	Y14	Z14	X15	Y15	Z15	X16	Y16	Z16	X17	Y17	Z17	X18	Y18	Z18	X19	Y19	Z19	X20	Y20	Z20	X21	Y21	Z21	X22	Y22	Z22	X23	Y23	Z23	X24	Y24	Z24

202	0.804	0.090379724	-0.039882969	-0.031485813	-0.35044842	0.092450903	0.13552483	-0.031510834	-0.0069685214	-0.054644838	-0.3747024	0.2250216	0.16360492	-0.032310132	0.0068225126	0.032559842	-0.33688918	0.21914961	0.082091049	-0.10854019	-0.031257354	-0.011348742	-0.40778997	0.26957084	0.10334768	0.070144771	0.35389632	-0.073146534	-0.019352008	0.34247246	0.20875473	0.040821534	0.35255409	0.044948226	-0.037253721	0.33128066	0.075655297	-0.046731247	0.73196156	-0.1427742	-0.10637112	0.70388465	0.19728325	0.013864735	0.77119947	-0.088966734	-0.01598261	0.76676286	0.1637625	-0.18536288	0.84512649	0.025197818	-0.063406302	1.2385547	-0.17545461	-0.068313461	1.2502725	0.18799348	-0.13863165	1.2863398	0.0022786393	-0.15308985	0.93735411	-0.20975139	-0.14515089	0.94442803	0.27929591	-0.056483278	0.71555657	-0.25669437	0.035048988	0.77515057	0.30105012
203	0.808	0.090426088	-0.039872756	-0.031448782	-0.33133441	0.093062233	0.13613776	-0.031530078	-0.0067647196	-0.054620894	-0.35912689	0.22474193	0.16376193	-0.032255509	0.0070526764	0.032543632	-0.32116073	0.21979727	0.081786996	-0.10852765	-0.0310674	-0.011306728	-0.39362495	0.26838929	0.10354472	0.070784168	0.35402379	-0.072743585	-0.0053938794	0.34634348	0.20861138	0.040857725	0.35259764	0.045102452	-0.023562293	0.33481401	0.075163633	-0.041740378	0.73336427	-0.14259025	-0.099604146	0.70642083	0.19730633	0.019229683	0.77281252	-0.089248957	-0.010511343	0.76931395	0.16379055	-0.1795264	0.8470344	0.024593313	-0.05702186	1.2410183	-0.17517442	-0.062654733	1.252285	0.18812441	-0.13240295	1.2884385	0.0023755125	-0.1452744	0.93908242	-0.21045803	-0.14095583	0.9467175	0.27818667	-0.045629981	0.71821545	-0.25580273	0.036056599	0.77471531	0.30177642
204	0.812	0.090454505	-0.039863186	-0.031449391	-0.31195848	0.093558625	0.13672697	-0.031502571	-0.0065137769	-0.054592331	-0.34350245	0.22424334	0.16388075	-0.032173979	0.0072920316	0.03252332	-0.30534734	0.2202627	0.081472327	-0.10850363	-0.030843048	-0.011262615	-0.37944173	0.26687646	0.10369931	0.071326203	0.35416525	-0.072381362	0.0084585433	0.35040923	0.20840843	0.041067456	0.3527934	0.045419389	-0.009939223	0.33858093	0.074816083	-0.037069204	0.73473253	-0.14229464	-0.092948345	0.7090552	0.19741898	0.024770784	0.77447466	-0.089572692	-0.0050414085	0.77191517	0.16380744	-0.17362093	0.84882458	0.023838887	-0.050639449	1.2435001	-0.17490503	-0.056956363	1.2542852	0.18825136	-0.12620127	1.290513	0.0024900296	-0.13747562	0.94084093	-0.21115906	-0.13677542	0.94901922	0.27710428	-0.034678036	0.72097817	-0.25480838	0.036919667	0.77438734	0.30251737
205	0.816	0.090468683	-0.03985058	-0.031492902	-0.29240246	0.09394153	0.13728921	-0.031464781	-0.0062451455	-0.054580348	-0.32779628	0.22351059	0.1639465	-0.032078309	0.0075408973	0.032503486	-0.28961416	0.22044534	0.081237656	-0.10846271	-0.030572954	-0.011208203	-0.36523981	0.26503975	0.10382884	0.071812483	0.35432708	-0.072050345	0.022188364	0.35464317	0.20816337	0.041295306	0.35309775	0.045818081	0.00367744	0.34243591	0.074623058	-0.032378476	0.73613215	-0.14206379	-0.086498085	0.71172209	0.19762606	0.030435925	0.776118	-0.089847221	0.00048182962	0.77454415	0.16378133	-0.16756503	0.85048158	0.022905673	-0.044215784	1.2459812	-0.1746423	-0.051240508	1.256252	0.18837064	-0.12003266	1.2925631	0.0026232675	-0.12969205	0.94261811	-0.21184549	-0.13260482	0.95132078	0.27605052	-0.023689303	0.72381717	-0.25373509	0.037756369	0.77415998	0.30328569
206	0.82	0.090491957	-0.039827514	-0.031562439	-0.27272486	0.094218523	0.13784816	-0.031439009	-0.0059996745	-0.054561979	-0.31191785	0.22248811	0.1639641	-0.031964237	0.0078049739	0.032486931	-0.27396106	0.22030884	0.081100812	-0.10841349	-0.030268302	-0.011148046	-0.35100413	0.2628423	0.10396402	0.072299488	0.35451772	-0.071735659	0.035774883	0.35901361	0.20790393	0.041548287	0.35343602	0.046230904	0.017349052	0.34630725	0.074525452	-0.027323977	0.73759887	-0.14200953	-0.080149222	0.71436437	0.19792839	0.036128635	0.77765999	-0.089957875	0.0060115476	0.7772267	0.16376142	-0.16150684	0.85210715	0.022019782	-0.037765388	1.2484445	-0.17437517	-0.045518191	1.2581696	0.1884833	-0.11389428	1.2945781	0.0027740643	-0.12191814	0.94440665	-0.21251524	-0.12844185	0.95361107	0.27501905	-0.012777545	0.72669095	-0.25265714	0.038654266	0.77402972	0.30407597
207	0.824	0.090538664	-0.039794659	-0.031634415	-0.25292879	0.094402245	0.13844299	-0.031431828	-0.0057718952	-0.054535988	-0.29574215	0.22107961	0.16398399	-0.031803614	0.008088958	0.032479361	-0.25831559	0.21986809	0.081023173	-0.10836806	-0.029942449	-0.011095071	-0.33668693	0.26024905	0.10412594	0.072799094	0.35473937	-0.071440581	0.049202133	0.36349883	0.20764026	0.041979418	0.35372695	0.046591163	0.031158803	0.3502785	0.074418667	-0.021877442	0.73910742	-0.14209447	-0.073748111	0.71697804	0.19832542	0.041760029	0.77910464	-0.089909346	0.011539809	0.77996148	0.16375543	-0.1557584	0.85388659	0.021557775	-0.031335291	1.2508778	-0.17408862	-0.039790283	1.260034	0.18859239	-0.10777521	1.2965391	0.0029392056	-0.11414697	0.94620115	-0.21317484	-0.12428766	0.9558847	0.27399528	-0.0020321142	0.7295677	-0.25163324	0.039602034	0.77398963	0.30485578
208	0.828	0.090598942	-0.039765479	-0.031693586	-0.23298099	0.094504087	0.13912071	-0.031447619	-0.0055317978	-0.054525267	-0.27928076	0.21923838	0.16409927	-0.031581434	0.0083867637	0.032485985	-0.24266391	0.21915194	0.080929861	-0.10832398	-0.029603202	-0.011045257	-0.32223246	0.25728778	0.10427639	0.073262697	0.35498281	-0.071189483	0.06246087	0.36809295	0.20736085	0.042522664	0.35393673	0.046837418	0.045139467	0.35445623	0.074226566	-0.016277418	0.74060742	-0.14221668	-0.067205487	0.71958648	0.19878159	0.047283085	0.78058616	-0.089897319	0.017186568	0.78267495	0.16365024	-0.15057929	0.85598706	0.021856405	-0.024936993	1.2532784	-0.1737782	-0.034057111	1.2618466	0.18870154	-0.1016662	1.2984312	0.0031156003	-0.1063778	0.94799378	-0.21383214	-0.12014638	0.95813655	0.27297191	0.0085786725	0.73245255	-0.25064398	0.040554457	0.77402621	0.30559499
209	0.832	0.090652248	-0.039753675	-0.031741294	-0.21288564	0.094519823	0.13990281	-0.031488249	-0.0052713657	-0.054541383	-0.26284737	0.21710028	0.16437442	-0.031358015	0.0086713146	0.032497303	-0.22702151	0.21817723	0.080798744	-0.10826379	-0.029253884	-0.010974113	-0.30762887	0.25402286	0.10437058	0.073630944	0.35523391	-0.071002511	0.075545706	0.37279207	0.20704999	0.042835038	0.35410863	0.04699201	0.059141276	0.35885962	0.073943075	-0.010767996	0.74205799	-0.14231043	-0.060512546	0.72220122	0.19924368	0.052707293	0.78225358	-0.090136915	0.023063963	0.785283	0.16331534	-0.14589894	0.85841851	0.022959187	-0.018544144	1.2556473	-0.17344815	-0.028319168	1.2636053	0.18881716	-0.09556442	1.3002523	0.0033021583	-0.098621171	0.9497714	-0.21448971	-0.11602255	0.9603546	0.27195789	0.019175648	0.73537526	-0.24961472	0.041491248	0.77412295	0.30628887
210	0.836	0.090688548	-0.039758868	-0.031792678	-0.19272359	0.094441677	0.14076478	-0.031549287	-0.0050002207	-0.054580041	-0.24679854	0.21492271	0.16476711	-0.031243654	0.0089104332	0.032489123	-0.21135118	0.216937	0.080701389	-0.10817395	-0.028893615	-0.010863978	-0.29291184	0.25050083	0.10442539	0.07387762	0.35548418	-0.070879341	0.088455704	0.37758141	0.20669732	0.04278994	0.35430751	0.047158473	0.072953157	0.36343566	0.073612401	-0.0054533681	0.74343371	-0.14236625	-0.053714241	0.72481636	0.19968169	0.058088455	0.78410464	-0.09062527	0.029126652	0.78776615	0.16273448	-0.14118553	0.86094074	0.024422159	-0.012137149	1.2579785	-0.17310298	-0.022576613	1.265304	0.18894408	-0.089469799	1.3020091	0.0034975383	-0.090894608	0.95151981	-0.21514236	-0.11191809	0.96252567	0.270967	0.029844904	0.7383501	-0.24849155	0.042417736	0.77426551	0.30694954
211	0.84	0.090716257	-0.039767969	-0.031861053	-0.17257279	0.094287323	0.1416829	-0.03161411	-0.004714811	-0.054629389	-0.23110259	0.21284916	0.16515835	-0.031238769	0.0091215588	0.032455339	-0.19556751	0.21541861	0.080702027	-0.10805538	-0.028518192	-0.010717037	-0.2781364	0.24675249	0.10449453	0.074017852	0.35573535	-0.07080126	0.10119375	0.38243693	0.20630075	0.042673407	0.35456608	0.04740938	0.086555008	0.36812025	0.073267336	-0.00031627345	0.74472114	-0.14240176	-0.046882292	0.72741488	0.20008709	0.063500933	0.78598804	-0.091159517	0.035222924	0.79016246	0.16199538	-0.13576031	0.86317338	0.025482399	-0.0057164884	1.2602584	-0.17274709	-0.016827289	1.2669367	0.18908285	-0.083382701	1.3037081	0.0036975205	-0.083210158	0.95323309	-0.2157766	-0.10783212	0.96464541	0.27000654	0.040586719	0.74136485	-0.24727224	0.043348205	0.77444496	0.3075903
212	0.844	0.090750865	-0.039769186	-0.031946989	-0.15242149	0.094094888	0.14268433	-0.031653771	-0.00440092	-0.054664243	-0.21542904	0.21082347	0.16545137	-0.031197711	0.0093756344	0.032421379	-0.17959725	0.21363301	0.08078109	-0.10791608	-0.028122251	-0.010540777	-0.26334948	0.24280607	0.1046171	0.074089709	0.35599612	-0.070743433	0.11376365	0.38733361	0.20586928	0.042767511	0.35488415	0.047700275	0.10006767	0.37289737	0.072891036	0.0047429164	0.74591901	-0.14243823	-0.040092898	0.72997062	0.20045696	0.069018443	0.78776582	-0.091569695	0.041244351	0.79251074	0.16119179	-0.12937617	0.86488586	0.025620968	0.00070970753	1.2624754	-0.17238337	-0.011066385	1.2684995	0.18923465	-0.07730617	1.305349	0.0038992919	-0.075565046	0.95491366	-0.21637713	-0.10376545	0.96671842	0.26907847	0.051358834	0.74439972	-0.24597973	0.044295494	0.77465533	0.30821887
213	0.848	0.090799795	-0.039760908	-0.032044331	-0.13221231	0.093892035	0.14381263	-0.031652088	-0.0040536353	-0.054657779	-0.19952684	0.20869951	0.16561478	-0.031025373	0.0097169793	0.032407463	-0.16340359	0.21160639	0.080882529	-0.107763	-0.027703724	-0.010332427	-0.24851798	0.23865949	0.10476708	0.074120547	0.35627527	-0.070694012	0.12616752	0.39225169	0.20541708	0.043042115	0.35525484	0.047905142	0.11343234	0.37779232	0.072462283	0.0098755275	0.74703995	-0.14249008	-0.033398725	0.7324553	0.20079903	0.074695088	0.78940629	-0.091838567	0.047185907	0.79481991	0.16036895	-0.12239186	0.86615978	0.024953871	0.0071348272	1.2646243	-0.17201159	-0.0052907709	1.2699877	0.18940124	-0.071244101	1.3069244	0.0041045886	-0.067936344	0.95655888	-0.2169468	-0.099722479	0.96874991	0.26818047	0.06212281	0.74743687	-0.24463879	0.045267054	0.77488822	0.30883752
